<svg width="406" height="123" viewBox="0 0 406 123" fill="none" xmlns="http://www.w3.org/2000/svg">
<path d="M125.794 15.0393C109.235 12.7223 99.2225 12.7415 94.7658 12.9531L89.6055 7.66797C96.949 8.09547 117.059 9.72392 125.794 15.0393Z" fill="#FCFCFC"/>
<path d="M11.7938 32.3994C-3.68714 47.8805 -0.716193 66.9583 2.88043 77.4354C1.38033 52.6656 23.2087 35.2141 34.3104 29.5846L46.5077 18.3256L50.2607 21.6095C50.2607 21.6095 67.462 16.2928 71.8405 15.5109L79.8156 8.00488C76.6881 8.00488 67.3369 8.56783 54.9519 10.8196C39.4708 13.6344 23.5221 21.6095 11.7938 32.3994Z" fill="#FCFCFC"/>
<path d="M46.9779 23.4865L16.0156 50.6957H23.9908V94.7935C31.6531 98.3901 54.6715 104.457 85.4461 99.9539C116.221 95.4503 140.177 73.9956 148.309 63.8312V50.6957H153.938L123.445 23.4865L115.001 30.9925L130.482 45.0662H124.853L85.4461 9.88184L46.9779 45.0662H39.941L54.953 30.9925L46.9779 23.4865Z" fill="#003973"/>
<path d="M142.631 100.423C177.534 76.7793 166.557 46.7866 157.174 35.2148C162.804 60.5476 143.552 79.3126 128.543 88.6951L142.631 100.423Z" fill="#FCFCFC"/>
<path d="M126.785 89.8724C127.343 89.5198 127.855 89.181 128.322 88.8586L131.62 86.6836L142.612 100.424C92.6974 128.947 37.9973 109.806 16.8867 96.6708C68.108 117.235 112.381 98.98 126.785 89.8724Z" fill="#FCFCFC"/>
<path d="M187.691 93.9998V91.2446L191.456 90.8772C192.987 90.6935 194.12 90.3568 194.854 89.867C195.65 89.3772 196.171 88.7037 196.416 87.8465C196.722 86.9893 196.875 85.9178 196.875 84.6321V39.0792C196.875 37.7934 196.722 36.7219 196.416 35.8648C196.171 35.0076 195.65 34.3341 194.854 33.8443C194.12 33.2932 192.987 32.9565 191.456 32.834L187.691 32.4667V29.7115H214.692V32.4667L210.926 32.834C209.457 32.9565 208.324 33.2932 207.528 33.8443C206.732 34.3341 206.181 35.0076 205.875 35.8648C205.63 36.7219 205.508 37.7934 205.508 39.0792V84.6321C205.508 85.9178 205.63 86.9893 205.875 87.8465C206.181 88.7037 206.732 89.3772 207.528 89.867C208.324 90.3568 209.457 90.6935 210.926 90.8772L214.692 91.2446V93.9998H187.691ZM220.158 93.9998V91.2446L223.923 90.8772C225.944 90.6935 227.352 90.1425 228.148 89.2241C228.944 88.3057 229.342 86.775 229.342 84.6321V39.0792C229.342 36.9362 228.944 35.4056 228.148 34.4872C227.352 33.5688 225.944 33.0177 223.923 32.834L220.158 32.4667V29.7115H247.434C255.578 29.7115 261.578 31.0584 265.435 33.7524C269.292 36.3852 271.221 40.2119 271.221 45.2325C271.221 53.2532 265.956 58.4575 255.425 60.8454C261.302 61.5189 265.558 63.1414 268.19 65.7129C270.823 68.2845 272.139 71.7438 272.139 76.0909C272.139 79.3359 271.344 82.3361 269.752 85.0913C268.16 87.7853 265.588 89.9588 262.037 91.6119C258.547 93.2038 253.833 93.9998 247.894 93.9998H220.158ZM246.332 90.3262C251.782 90.3262 255.945 89.1016 258.823 86.6526C261.7 84.2035 263.139 80.7442 263.139 76.2746C263.139 72.0499 261.823 68.8355 259.19 66.6313C256.618 64.3659 252.822 63.2332 247.802 63.2332H237.975V86.8362C237.975 88.0608 238.556 88.9486 239.72 89.4996C240.944 90.0507 243.149 90.3262 246.332 90.3262ZM237.975 59.5596H247.985C252.026 59.5596 255.394 58.3351 258.088 55.886C260.843 53.4369 262.221 49.9776 262.221 45.508C262.221 41.7119 260.966 38.7424 258.455 36.5995C255.945 34.4565 251.965 33.3851 246.516 33.3851C243.822 33.3851 241.71 33.63 240.179 34.1198C238.71 34.5484 237.975 35.2525 237.975 36.2321V59.5596ZM313.984 94.9182C307.066 94.9182 301.035 93.5406 295.892 90.7854C290.749 87.9689 286.769 84.1423 283.952 79.3053C281.197 74.4684 279.82 68.958 279.82 62.774C279.82 58.1208 280.646 53.7431 282.299 49.6408C284.014 45.5386 286.432 41.9262 289.555 38.8037C292.739 35.6811 296.535 33.232 300.943 31.4564C305.351 29.6808 310.249 28.793 315.637 28.793C319.556 28.793 323.23 29.191 326.658 29.987C330.148 30.7217 333.822 32.0381 337.679 33.9361V46.2427H334.924C333.761 41.5283 331.25 38.0996 327.393 35.9566C323.597 33.7524 319.189 32.6503 314.168 32.6503C308.841 32.6503 304.31 33.8749 300.576 36.324C296.841 38.7731 293.994 42.0793 292.034 46.2427C290.075 50.4062 289.096 55.1207 289.096 60.3862C289.096 64.121 289.647 67.8253 290.749 71.4989C291.912 75.1113 293.596 78.4175 295.8 81.4177C298.004 84.3565 300.729 86.7138 303.974 88.4894C307.219 90.2037 310.984 91.0609 315.27 91.0609C318.331 91.0609 321.025 90.7242 323.352 90.0507C325.679 89.3772 327.699 87.9383 329.414 85.7342C331.189 83.4688 332.72 80.0707 334.006 75.5399H336.761V90.1425C332.414 91.8569 328.342 93.0814 324.546 93.8161C320.75 94.5508 317.229 94.9182 313.984 94.9182ZM378.38 94.9182C371.462 94.9182 365.431 93.5406 360.288 90.7854C355.145 87.9689 351.165 84.1423 348.348 79.3053C345.593 74.4684 344.216 68.958 344.216 62.774C344.216 58.1208 345.042 53.7431 346.695 49.6408C348.41 45.5386 350.828 41.9262 353.951 38.8037C357.135 35.6811 360.931 33.232 365.339 31.4564C369.747 29.6808 374.645 28.793 380.033 28.793C383.952 28.793 387.626 29.191 391.054 29.987C394.544 30.7217 398.218 32.0381 402.075 33.9361V46.2427H399.32C398.157 41.5283 395.646 38.0996 391.789 35.9566C387.993 33.7524 383.585 32.6503 378.564 32.6503C373.237 32.6503 368.706 33.8749 364.972 36.324C361.237 38.7731 358.39 42.0793 356.43 46.2427C354.471 50.4062 353.492 55.1207 353.492 60.3862C353.492 64.121 354.043 67.8253 355.145 71.4989C356.308 75.1113 357.992 78.4175 360.196 81.4177C362.4 84.3565 365.125 86.7138 368.37 88.4894C371.615 90.2037 375.38 91.0609 379.666 91.0609C382.727 91.0609 385.421 90.7242 387.748 90.0507C390.075 89.3772 392.095 87.9383 393.809 85.7342C395.585 83.4688 397.116 80.0707 398.402 75.5399H401.157V90.1425C396.81 91.8569 392.738 93.0814 388.942 93.8161C385.146 94.5508 381.625 94.9182 378.38 94.9182Z" fill="white"/>
</svg>
