<svg width="178" height="115" viewBox="0 0 178 115" fill="none" xmlns="http://www.w3.org/2000/svg">
<g clip-path="url(#clip0_210_82)">
<path d="M134.07 7.85646C116.422 5.38702 105.75 5.40744 101 5.63298L95.5 0C103.327 0.455632 124.761 2.19126 134.07 7.85646Z" fill="#1B7290"/>
<path d="M12.57 26.3584C-3.92981 42.8584 -0.763328 63.1917 3.07 74.3584C1.47118 47.9584 24.7362 29.3584 36.5685 23.3584L49.5685 11.3584L53.5685 14.8584C53.5685 14.8584 71.9019 9.19173 76.5685 8.3584L85.0685 0.358398C81.7352 0.358398 71.7685 0.958399 58.5685 3.3584C42.0685 6.3584 25.0702 14.8584 12.57 26.3584Z" fill="#1B7290"/>
<path d="M50.0703 16.8584L17.0703 45.8584H25.5703V92.8584C33.737 96.6917 58.2703 103.158 91.0703 98.3584C123.87 93.5584 149.404 70.6917 158.07 59.8584V45.8584H164.07L131.57 16.8584L122.57 24.8584L139.07 39.8584H133.07L91.0703 2.3584L50.0703 39.8584H42.5703L58.5703 24.8584L50.0703 16.8584Z" fill="#003973"/>
<path d="M152.016 98.8584C189.216 73.6584 177.516 41.6917 167.516 29.3584C173.516 56.3584 152.997 76.3584 137 86.3584L152.016 98.8584Z" fill="#1B7290"/>
<path d="M135.131 87.6135C135.725 87.2377 136.272 86.8766 136.769 86.533L140.284 84.2148L152 98.8594C98.8 129.259 40.5 108.859 18 94.8594C72.5924 116.777 119.779 97.3206 135.131 87.6135Z" fill="#1B7290"/>
</g>
<defs>
<clipPath id="clip0_210_82">
<rect width="178" height="115" fill="white"/>
</clipPath>
</defs>
</svg>
