<svg width="406" height="123" viewBox="0 0 406 123" fill="none" xmlns="http://www.w3.org/2000/svg">
<path d="M125.794 15.0393C109.235 12.7223 99.2225 12.7415 94.7658 12.9531L89.6055 7.66797C96.949 8.09547 117.059 9.72392 125.794 15.0393Z" fill="#1B7290"/>
<path d="M11.7939 32.3994C-3.68703 47.8805 -0.716085 66.9583 2.88054 77.4354C1.38044 52.6656 23.2088 35.2141 34.3105 29.5846L46.5078 18.3256L50.2608 21.6095C50.2608 21.6095 67.4621 16.2928 71.8406 15.5109L79.8157 8.00488C76.6882 8.00488 67.337 8.56783 54.952 10.8196C39.4709 13.6344 23.5222 21.6095 11.7939 32.3994Z" fill="#1B7290"/>
<path d="M46.9779 23.4865L16.0156 50.6957H23.9908V94.7935C31.6531 98.3901 54.6715 104.457 85.4461 99.9539C116.221 95.4503 140.177 73.9956 148.309 63.8312V50.6957H153.938L123.445 23.4865L115.001 30.9925L130.482 45.0662H124.853L85.4461 9.88184L46.9779 45.0662H39.941L54.953 30.9925L46.9779 23.4865Z" fill="#003973"/>
<path d="M142.631 100.423C177.534 76.7793 166.557 46.7866 157.174 35.2148C162.804 60.5476 143.552 79.3126 128.543 88.6951L142.631 100.423Z" fill="#1B7290"/>
<path d="M126.785 89.8724C127.343 89.5198 127.855 89.181 128.322 88.8586L131.62 86.6836L142.612 100.424C92.6974 128.947 37.9973 109.806 16.8867 96.6708C68.108 117.235 112.381 98.98 126.785 89.8724Z" fill="#1B7290"/>
<path d="M187.693 94V91.2448L191.458 90.8774C192.989 90.6937 194.122 90.357 194.856 89.8672C195.652 89.3774 196.173 88.7039 196.418 87.8467C196.724 86.9895 196.877 85.918 196.877 84.6323V39.0794C196.877 37.7936 196.724 36.7221 196.418 35.865C196.173 35.0078 195.652 34.3343 194.856 33.8445C194.122 33.2934 192.989 32.9567 191.458 32.8342L187.693 32.4669V29.7117H214.694V32.4669L210.928 32.8342C209.459 32.9567 208.326 33.2934 207.53 33.8445C206.734 34.3343 206.183 35.0078 205.877 35.865C205.632 36.7221 205.51 37.7936 205.51 39.0794V84.6323C205.51 85.918 205.632 86.9895 205.877 87.8467C206.183 88.7039 206.734 89.3774 207.53 89.8672C208.326 90.357 209.459 90.6937 210.928 90.8774L214.694 91.2448V94H187.693ZM220.16 94V91.2448L223.925 90.8774C225.946 90.6937 227.354 90.1427 228.15 89.2243C228.946 88.3059 229.344 86.7752 229.344 84.6323V39.0794C229.344 36.9364 228.946 35.4058 228.15 34.4874C227.354 33.569 225.946 33.0179 223.925 32.8342L220.16 32.4669V29.7117H247.436C255.58 29.7117 261.58 31.0586 265.437 33.7526C269.294 36.3854 271.223 40.2121 271.223 45.2327C271.223 53.2534 265.958 58.4577 255.427 60.8456C261.304 61.5191 265.56 63.1416 268.192 65.7131C270.825 68.2847 272.141 71.744 272.141 76.0911C272.141 79.3361 271.346 82.3363 269.754 85.0915C268.162 87.7855 265.59 89.959 262.039 91.6121C258.549 93.204 253.835 94 247.896 94H220.16ZM246.334 90.3264C251.784 90.3264 255.947 89.1018 258.825 86.6528C261.702 84.2037 263.141 80.7444 263.141 76.2748C263.141 72.0501 261.825 68.8357 259.192 66.6315C256.62 64.3661 252.824 63.2334 247.804 63.2334H237.977V86.8364C237.977 88.061 238.558 88.9488 239.722 89.4998C240.946 90.0509 243.151 90.3264 246.334 90.3264ZM237.977 59.5598H247.987C252.028 59.5598 255.396 58.3353 258.09 55.8862C260.845 53.4371 262.223 49.9778 262.223 45.5082C262.223 41.7121 260.968 38.7426 258.457 36.5997C255.947 34.4567 251.967 33.3853 246.518 33.3853C243.824 33.3853 241.712 33.6302 240.181 34.12C238.712 34.5486 237.977 35.2527 237.977 36.2323V59.5598ZM313.986 94.9184C307.068 94.9184 301.037 93.5408 295.894 90.7856C290.751 87.9691 286.771 84.1425 283.954 79.3055C281.199 74.4686 279.822 68.9582 279.822 62.7742C279.822 58.121 280.648 53.7433 282.301 49.641C284.016 45.5388 286.434 41.9264 289.557 38.8039C292.741 35.6813 296.537 33.2322 300.945 31.4566C305.353 29.681 310.251 28.7932 315.639 28.7932C319.558 28.7932 323.232 29.1912 326.66 29.9872C330.15 30.7219 333.824 32.0383 337.681 33.9363V46.2429H334.926C333.763 41.5285 331.252 38.0998 327.395 35.9568C323.599 33.7526 319.191 32.6505 314.17 32.6505C308.843 32.6505 304.312 33.8751 300.578 36.3242C296.843 38.7733 293.996 42.0795 292.036 46.2429C290.077 50.4064 289.098 55.1209 289.098 60.3864C289.098 64.1212 289.649 67.8255 290.751 71.4991C291.914 75.1115 293.598 78.4177 295.802 81.4179C298.006 84.3567 300.731 86.714 303.976 88.4896C307.221 90.2039 310.986 91.0611 315.272 91.0611C318.333 91.0611 321.027 90.7244 323.354 90.0509C325.681 89.3774 327.701 87.9385 329.416 85.7344C331.191 83.469 332.722 80.0709 334.008 75.5401H336.763V90.1427C332.416 91.8571 328.344 93.0816 324.548 93.8163C320.752 94.551 317.231 94.9184 313.986 94.9184ZM378.382 94.9184C371.464 94.9184 365.433 93.5408 360.29 90.7856C355.147 87.9691 351.167 84.1425 348.35 79.3055C345.595 74.4686 344.218 68.9582 344.218 62.7742C344.218 58.121 345.044 53.7433 346.697 49.641C348.412 45.5388 350.83 41.9264 353.953 38.8039C357.137 35.6813 360.933 33.2322 365.341 31.4566C369.749 29.681 374.647 28.7932 380.035 28.7932C383.954 28.7932 387.628 29.1912 391.056 29.9872C394.546 30.7219 398.22 32.0383 402.077 33.9363V46.2429H399.322C398.159 41.5285 395.648 38.0998 391.791 35.9568C387.995 33.7526 383.587 32.6505 378.566 32.6505C373.239 32.6505 368.708 33.8751 364.974 36.3242C361.239 38.7733 358.392 42.0795 356.432 46.2429C354.473 50.4064 353.494 55.1209 353.494 60.3864C353.494 64.1212 354.045 67.8255 355.147 71.4991C356.31 75.1115 357.994 78.4177 360.198 81.4179C362.402 84.3567 365.127 86.714 368.372 88.4896C371.617 90.2039 375.382 91.0611 379.668 91.0611C382.729 91.0611 385.423 90.7244 387.75 90.0509C390.077 89.3774 392.097 87.9385 393.811 85.7344C395.587 83.469 397.118 80.0709 398.404 75.5401H401.159V90.1427C396.812 91.8571 392.74 93.0816 388.944 93.8163C385.148 94.551 381.627 94.9184 378.382 94.9184Z" fill="#003973"/>
</svg>
